<svg xmlns="http://www.w3.org/2000/svg" width="121" height="121" viewBox="0 0 121 121">
  <g id="Grupo_10002" data-name="Grupo 10002" transform="translate(-145 -3618)">
    <g id="Grupo_1010" data-name="Grupo 1010" transform="translate(2406 7525)">
      <circle id="Elipse_497" data-name="Elipse 497" cx="60.5" cy="60.5" r="60.5" transform="translate(-2261 -3907)" fill="#7cb342"/>
      <path id="Trazado_1178" data-name="Trazado 1178" d="M53.993,0A53.993,53.993,0,1,1,0,53.993,53.993,53.993,0,0,1,53.993,0Z" transform="translate(-2254 -3900)" fill="#fff"/>
    </g>
    <g id="Grupo_9935" data-name="Grupo 9935" transform="translate(-240.137 3092.178)">
      <path id="Trazado_1263" data-name="Trazado 1263" d="M484.453,572.261,473.187,579a10.186,10.186,0,0,0-9.391,1.211l-12.514,6.741a5.529,5.529,0,0,1-5.579,5.477h-.056a5.417,5.417,0,0,1-5-5.477c0-3.054,2.5-5.531,5-5.531a4.738,4.738,0,0,1,3.129,1.264l12.52-6.741c2.5-1.212,5.008-4.266,6.257-7.321l11.266-6.11-1.875,7.953Z" transform="translate(-1.85 -0.057)" fill="#7cb342" fill-rule="evenodd"/>
      <path id="Trazado_1264" data-name="Trazado 1264" d="M469.458,582a12.493,12.493,0,0,0-5,1.212,20.622,20.622,0,0,1-5.635,18.382A22.275,22.275,0,0,1,443.8,607.7a21.984,21.984,0,0,1-14.395-6.11,21.234,21.234,0,0,1-6.256-14.694,20.866,20.866,0,0,1,6.257-14.063A21.717,21.717,0,0,1,443.8,566.73a20.2,20.2,0,0,1,14.395,5.477c1.254-.579,2.507-2.423,3.133-3.635a24.752,24.752,0,0,0-17.53-6.741c-13.767,0-25.66,11.64-25.66,25.071,0,7.953,3.756,14.063,8.764,18.961l-3.753,11a1.2,1.2,0,0,0,1.518.767,1.22,1.22,0,0,0,.357-.188l8.137-7.321a27.328,27.328,0,0,0,21.905,0l8.137,7.321a1.207,1.207,0,0,0,1.692-.226,1.225,1.225,0,0,0,.188-.353l-3.755-11.008A25.519,25.519,0,0,0,469.458,582Z" fill="#002b45" fill-rule="evenodd"/>
      <path id="Trazado_1265" data-name="Trazado 1265" d="M444.7,577.4a8.97,8.97,0,0,1,4.382,1.211l5.008-3.054a15.56,15.56,0,0,0-9.39-3.055c-8.137,0-15.648,7.321-15.648,15.274,0,8.536,7.51,15.274,15.648,15.274,9.391,0,16.9-7.321,15.648-16.486l-5.008,2.423c-.621,5.531-5,9.164-10.639,9.164a10.421,10.421,0,0,1-10.637-10.2c0-.057,0-.114,0-.171C434.055,582.246,439.064,577.4,444.7,577.4Z" transform="translate(-0.897 -0.878)" fill="#002b45" fill-rule="evenodd"/>
    </g>
  </g>
</svg>
