<svg xmlns="http://www.w3.org/2000/svg" width="121" height="121" viewBox="0 0 121 121">
  <g id="Grupo_10003" data-name="Grupo 10003" transform="translate(-145 -3798)">
    <g id="Grupo_9933" data-name="Grupo 9933" transform="translate(2406 7705)">
      <circle id="Elipse_497" data-name="Elipse 497" cx="60.5" cy="60.5" r="60.5" transform="translate(-2261 -3907)" fill="#7cb342"/>
      <path id="Trazado_1178" data-name="Trazado 1178" d="M53.993,0A53.993,53.993,0,1,1,0,53.993,53.993,53.993,0,0,1,53.993,0Z" transform="translate(-2254 -3900)" fill="#fff"/>
    </g>
    <g id="Grupo_9936" data-name="Grupo 9936" transform="translate(-243.137 3088.175)">
      <path id="Trazado_1266" data-name="Trazado 1266" d="M453.638,768.478l3.315-5.093c.577-1.1,2.21-1.1,3.892-.529,1.1,1.1,1.634,2.787.529,3.94l-3.315,5.093c-.528,1.105-2.21,1.682-3.844.577C453.057,771.894,453.057,770.212,453.638,768.478Z" fill="#002b45" fill-rule="evenodd"/>
      <path id="Trazado_1267" data-name="Trazado 1267" d="M449.218,766.8c1.1,1.1,2.739.577,3.844-.577l3.363-5.093a3.048,3.048,0,0,0-1.1-3.94,2.238,2.238,0,0,0-3.108.6,2.272,2.272,0,0,0-.255.5l-3.315,5.093a2.178,2.178,0,0,0,.1,3.078,2.151,2.151,0,0,0,.475.339Z" fill="#002b45" fill-rule="evenodd"/>
      <path id="Trazado_1268" data-name="Trazado 1268" d="M465.842,776.405l-2.787,4.516a2.174,2.174,0,0,0,.529,3.411,2.11,2.11,0,0,0,3.363-.577l3.315-4.516a2.8,2.8,0,0,0-1.1-3.411c-1.1-.523-2.786-.523-3.315.582Z" fill="#002b45" fill-rule="evenodd"/>
      <path id="Trazado_1269" data-name="Trazado 1269" d="M458.636,774.723a2.124,2.124,0,0,0,.529,3.363,2.657,2.657,0,0,0,3.742-.333c.053-.063.1-.129.15-.2l3.315-4.564c.576-1.682.576-3.363-1.105-3.94a2.034,2.034,0,0,0-3.315.577Z" fill="#002b45" fill-rule="evenodd"/>
      <path id="Trazado_1270" data-name="Trazado 1270" d="M473.577,788.855l-3.891-4.516c-3.845,6.2-10.518,1.681-9.417-2.835-2.738-.577-4.95-3.412-4.421-5.67-2.213,0-5.528-3.365-5-6.2-3.316,0-7.159-3.407-3.844-8.5h-.577c-1.1-1.1-1.634-3.363-1.634-5.093a13.379,13.379,0,0,0-3.892-9.609,11.078,11.078,0,0,0-12.2-2.835l7.783,7.928c0,2.835-4.42,7.351-7.783,7.351l-7.159-7.928a11.985,11.985,0,0,0,11.627,16.432,6.925,6.925,0,0,1,5.526,2.258l2.74,2.258,7.206,1.682a5.108,5.108,0,0,1,2.787,8.5l14.414,14.7c.1.1.195.2.3.3a5.264,5.264,0,0,0,7.438-.3l.048-.048A5.568,5.568,0,0,0,473.577,788.855Zm-2.209,3.407v0c0,1.681-.575,2.834-2.209,2.831a2.59,2.59,0,0,1-2.21-2.835,2.384,2.384,0,0,1,2.21-2.258,2,2,0,0,1,.387,0A2.05,2.05,0,0,1,471.368,792.262Z" fill="#7cb342" fill-rule="evenodd"/>
      <path id="Trazado_1271" data-name="Trazado 1271" d="M451.429,785.439c-1.682-1.682-4.42-1.682-8.841-2.258a1.24,1.24,0,0,0-1.153,1.153c0,.577-1.105,10.186-1.105,10.186s6.679,4.516,9.417,6.775c2.787-5.093,6.679-5.093,9.417-7.351Z" fill="#002b45" fill-rule="evenodd"/>
      <path id="Trazado_1272" data-name="Trazado 1272" d="M447.537,781.5c3.315,0,3.892-5.093.577-5.67-12.2-2.258-11.627-2.258-12.2-2.258a2.993,2.993,0,0,0-2.739,2.835l-1.1,9.609a2.747,2.747,0,0,0,1.1,3.411c1.634,1.1,4.949,3.363,4.949,3.363s1.1-6.775,1.1-8.456c0-2.258,1.1-3.411,3.363-3.411,0,0,4.421.581,4.949.581Z" fill="#002b45" fill-rule="evenodd"/>
    </g>
  </g>
</svg>
