<svg xmlns="http://www.w3.org/2000/svg" width="271.795" height="235.284" viewBox="0 0 271.795 235.284">
  <g id="Grupo_9928" data-name="Grupo 9928" transform="translate(-2621.78 -1948.185)">
    <path id="Trazado_1220" data-name="Trazado 1220" d="M4004.391,2428.757l-33.2-5.854,10.561-1.862,3.231-.574,16.181-2.845v2.119a32.848,32.848,0,0,0-6.182.679q-3.161.7-3.162,1.686,0,1.007,3.162,1.686a42.088,42.088,0,0,0,15.314,0q3.185-.679,3.185-1.686,0-.984-3.185-1.686a32.768,32.768,0,0,0-5.878-.679v-2.693l22.843,4.028,3.243.573,7.118,1.253h-.023l-8.031,1.429h-.036Zm-21.777,112.75a5.1,5.1,0,0,0-3.348,3.3,9.994,9.994,0,0,0-.258,6.112v.047q.011.042.023.082a10,10,0,0,0,3.091,5.187,5.322,5.322,0,0,0,4.519,1.382l-6.814,1.686a5.131,5.131,0,0,1-4.707-1.311,12.252,12.252,0,0,1-1.1-1.1,10.6,10.6,0,0,1-2.014-4.168v-.047c-.052-.211-.1-.421-.141-.632a10.376,10.376,0,0,1-.047-4,11.768,11.768,0,0,1,.445-1.475,5.167,5.167,0,0,1,3.536-3.372Z" transform="translate(-1160.389 -388.199)" fill="#8ec2ff" fill-rule="evenodd"/>
    <path id="Trazado_1221" data-name="Trazado 1221" d="M4103.671,2542.067V2441.716l25.138-4.426h.036l8.031-1.428v104.484l-25.641,4.52q-.406-.279-.843-.539A15.389,15.389,0,0,0,4103.671,2542.067ZM4100.44,2432.7v.4h.07v1.756a.819.819,0,0,0,.445.7,2.019,2.019,0,0,0,1.124.3h.023a1.9,1.9,0,0,0,1.1-.3.815.815,0,0,0,.468-.7V2433.1h.023v-.4a32.737,32.737,0,0,1,5.877.679q3.185.7,3.185,1.686,0,1.007-3.185,1.686a42.087,42.087,0,0,1-15.314,0q-3.162-.679-3.162-1.686,0-.983,3.162-1.686A32.843,32.843,0,0,1,4100.44,2432.7Z" transform="translate(-1259.669 -401.158)" fill="#60a2f0" fill-rule="evenodd"/>
    <path id="Trazado_1223" data-name="Trazado 1223" d="M3105.167,3052.62a15.833,15.833,0,0,0-2.857-2.447l25.641-4.52v-2.646l16.368,2.834Zm-46.037,18.347a6.737,6.737,0,0,0,.14.8,5.18,5.18,0,0,0,1.71,2.856,2.833,2.833,0,0,0,2.6.75l.8-.211a12.258,12.258,0,0,0,1.1,1.1,5.132,5.132,0,0,0,4.707,1.311l6.814-1.686,5.175-1.288a15.554,15.554,0,0,0,2.974,2.224,15.891,15.891,0,0,0,21.754-5.409c.007-.011.014-.023.024-.035q6.626,1.822,6.627,4.25,0,2.856-9.179,4.871a122.98,122.98,0,0,1-44.327,0q-9.156-2.014-9.156-4.871Q3050.887,3072.916,3059.13,3070.966Zm-51.914-6.311,6.7,1.182v-.024l33.228-5.854V3057.5l6.744,1.194v.024l26.461-4.66q-.327.474-.632.983a17.758,17.758,0,0,0-1.135,2.178l-105.362,18.242-13.266-2.295-34.691,6.123a1.42,1.42,0,0,0-.3-.269q.469-.281.468-.632v-.492l22.34-3.934v-2.482l1.311.234,2.154-.375,1.054-.187,1.639-.3v-1.522l20.068,3.536v.024l33.228-5.854Zm-99.31,18.9v1.113q0,.35.515.655a6.683,6.683,0,0,0,2.037.726l1.592.258a31.422,31.422,0,0,0,4.613.3,29.326,29.326,0,0,0,6.205-.562,7.432,7.432,0,0,0,2.084-.726.83.83,0,0,0,.468-.655v-1.077q2.2.621,2.2,1.452,0,1.007-3.231,1.709a43.49,43.49,0,0,1-15.572,0q-3.208-.7-3.208-1.709Q2905.611,3084.188,2907.906,3083.553Zm0-2.576v.55q0,.328.515.656a1.187,1.187,0,0,0-.152.1l-4.6.808-31.144-5.479,7.306-1.288a29.127,29.127,0,0,1-3.419-.515q-3.208-.7-3.208-1.709,0-.894,2.529-1.546v.211q0,.352.515.656a7.253,7.253,0,0,0,2.037.7q.726.141,1.592.281.684.094,1.428.152v3.267l22.269,3.91Zm-14.565,5.187q1.874.591,1.874,1.358,0,1.007-3.231,1.71a43.505,43.505,0,0,1-15.572,0q-3.208-.7-3.208-1.71,0-.906,2.6-1.569v1.171q0,.327.515.655a7.239,7.239,0,0,0,2.037.7,14.21,14.21,0,0,0,1.593.258,31.451,31.451,0,0,0,4.613.3,29.343,29.343,0,0,0,6.205-.562,8.09,8.09,0,0,0,2.084-.7q.492-.327.491-.655Z" transform="translate(-250.744 -906.465)" fill="rgba(52,52,52,0.1)" fill-rule="evenodd"/>
    <path id="Trazado_1224" data-name="Trazado 1224" d="M3043.059,2529.294q-1.85-.234-3.7-.445-.615-.114-1.218-.234-1.12-.209-2.2-.422l-.258-.094a4.677,4.677,0,0,1-.585-.14,16.44,16.44,0,0,1-4.1-1.405,1.142,1.142,0,0,1-.632-1.077,9.55,9.55,0,0,1,1.522-5.6,27,27,0,0,0,2.787-5.526,11.114,11.114,0,0,0,.492-6.088,18.319,18.319,0,0,0-.562-2.342,9.3,9.3,0,0,0-.679-1.639q-.843-1.64-1.8-3.231-1.475-2.482-2.74-4.4a14.635,14.635,0,0,1-1.943-4.66,11.054,11.054,0,0,1-.211-4.847,4.644,4.644,0,0,1,2.061-3.138,4.946,4.946,0,0,1,3.817-.656q0,.051,0,.105a5.2,5.2,0,0,0,.937,3.032,3.3,3.3,0,0,0,2.131,1.475,11.887,11.887,0,0,0,5.643.047,4.8,4.8,0,0,0,2.365-.89,15.149,15.149,0,0,0-.749,4.918,14.622,14.622,0,0,0,.539,3.7,37.859,37.859,0,0,0,1.382,4.215q.421,1.077.89,2.178a15.586,15.586,0,0,1,1.077,5.995,19.9,19.9,0,0,1-.82,5.69,61.37,61.37,0,0,1-1.967,5.854,35.409,35.409,0,0,0-1.253,4.2q-.235,1.017-.41,2.049A7.321,7.321,0,0,0,3043.059,2529.294Zm13.078-32.865q-7.057,2.673-11.181-3.407a1.97,1.97,0,0,1-.047-.328,2.662,2.662,0,0,1,.07-2.435,3.908,3.908,0,0,1,2.529-1.827,33.975,33.975,0,0,0,4.18-1.136l.106-.035a64.34,64.34,0,0,0,24.048-13.863,5.648,5.648,0,0,1,4.379-.023,4.03,4.03,0,0,1,2.295,3.091,105.42,105.42,0,0,1-10.115,9.929,97.093,97.093,0,0,1-14.565,9.226,1.968,1.968,0,0,0-.4.258Q3056.777,2496.19,3056.137,2496.429Zm125.688,1.323-33.2-5.854h-.023l31.94-5.631,1.288-.222,1.616.281,6.042,1.066,25.489,4.5-33.146,5.842Z" transform="translate(-378.684 -434.48)" fill="#ff65a7" fill-rule="evenodd"/>
    <path id="Trazado_1225" data-name="Trazado 1225" d="M3541.315,2695.358l26.46,4.66-33.228,5.854-33.2-5.854,33.228-5.854Z" transform="translate(-771.378 -617.638)" fill="#4eeef1" fill-rule="evenodd"/>
    <path id="Trazado_1226" data-name="Trazado 1226" d="M3080.836,2537.366a33.987,33.987,0,0,1-4.18,1.136,3.909,3.909,0,0,0-2.529,1.826,2.663,2.663,0,0,0-.07,2.435,1.941,1.941,0,0,0,.047.328q4.124,6.08,11.181,3.407a29.614,29.614,0,0,1,.972,9.893,100.8,100.8,0,0,0-.351,13.418q.281,5.2.468,6.275.164,1.007.164,1.077a6.262,6.262,0,0,1-.281,1.8,1.125,1.125,0,0,1-.726.75c-.185,0-.368.009-.55.011q-5.491.139-10.151-.129-.515-.07-1.007-.094l-1.241-.094a.289.289,0,0,0-.164-.047h-.211a7.324,7.324,0,0,1-.187-3.372q.175-1.032.41-2.049a35.422,35.422,0,0,1,1.253-4.2,61.412,61.412,0,0,0,1.967-5.854,19.9,19.9,0,0,0,.82-5.69,15.585,15.585,0,0,0-1.077-5.995q-.469-1.1-.89-2.178a37.962,37.962,0,0,1-1.382-4.215,14.622,14.622,0,0,1-.538-3.7,15.148,15.148,0,0,1,.75-4.917,4.8,4.8,0,0,1-2.365.89,11.881,11.881,0,0,1-5.643-.047,3.3,3.3,0,0,1-2.131-1.475,5.2,5.2,0,0,1-.937-3.032q0-.055,0-.105h.071l1.405.281a1.018,1.018,0,0,0,.012.117c0,.046.007.093.011.141a4.22,4.22,0,0,0,.164.8,2.414,2.414,0,0,0,.538.82,1.929,1.929,0,0,0,1.007.445,6.45,6.45,0,0,0,1.8.258,8.826,8.826,0,0,0,1.686-.164q.913-.094,1.826-.234.913-.117,1.8-.281.82-.117,1.709-.281.82-.164,1.686-.281a4.572,4.572,0,0,1,1.487.012,3.09,3.09,0,0,1,.316.059q.866.538,1.616,1.077a8.781,8.781,0,0,1,.749.55,7.939,7.939,0,0,1,.609.551C3080.78,2537.312,3080.808,2537.34,3080.836,2537.366Zm130.137,99.415-6.744-1.194V2566.93l-26.46-4.66v-20.3l33.2,5.854Zm-143.274,3.232q.039-.535.059-1.183.037-1.16.024-2.681-.047-1.124-.047-2.061.281.071.7.164a6.964,6.964,0,0,0,.7.141,8.5,8.5,0,0,0,1.4.141,9.125,9.125,0,0,0,1.147-.094,2.515,2.515,0,0,0-.094.515q-.187.913-.375,2.248-.087.542-.152,1.042-.077.631-.117,1.194-.032.5-.035.948,0,.359.023.679a22.624,22.624,0,0,1-2.951-.48q-.169-.038-.328-.082C3067.677,2640.35,3067.689,2640.186,3067.7,2640.013Z" transform="translate(-407.832 -484.55)" fill="#cb2069" fill-rule="evenodd"/>
    <path id="Trazado_1227" data-name="Trazado 1227" d="M3992.588,2161.453v.4h-.023v1.756a.816.816,0,0,1-.468.7,1.9,1.9,0,0,1-1.1.3h-.023a2.019,2.019,0,0,1-1.125-.3.82.82,0,0,1-.445-.7v-1.756h-.07v-56.761q.89,1.522,3.255.96v55.4Zm-32.6,128.3a10.375,10.375,0,0,0,.047,4q.064.316.141.632v.047a10.6,10.6,0,0,0,2.013,4.168l-.8.211a2.833,2.833,0,0,1-2.6-.75,5.178,5.178,0,0,1-1.709-2.856,6.689,6.689,0,0,1-.141-.8,5.093,5.093,0,0,1,.3-2.576,2.8,2.8,0,0,1,1.943-1.874Zm32.572-119.284v100.351a16.073,16.073,0,0,0-5.269.457,17.544,17.544,0,0,0-2.365.772V2187.3l-.082.012-25.489-4.5v-18.207Z" transform="translate(-1148.562 -129.91)" fill="#367dd1" fill-rule="evenodd"/>
    <path id="Trazado_1228" data-name="Trazado 1228" d="M3121.891,2472.978a5.987,5.987,0,0,1,1.03-.8,2.807,2.807,0,0,1,2.084-.422,3.887,3.887,0,0,1,1.9.82,3.825,3.825,0,0,1,.913,1.1.179.179,0,0,0,.023.07,21.587,21.587,0,0,1-5.081,10.959q-.45.483-.913.925a8.837,8.837,0,0,0-.749-.55q-.749-.538-1.616-1.077a3.153,3.153,0,0,0-.316-.059.564.564,0,0,1-.105-.152,9.461,9.461,0,0,0-.632-1.264,2.68,2.68,0,0,0-.89-1.007.36.36,0,0,0-.07-.094h-.843q.13-.1.257-.211Q3121.259,2477.544,3121.891,2472.978Zm10.584,115.724a13.524,13.524,0,0,1-5.386,1.733,40.054,40.054,0,0,1-4.3.2q-.666.012-1.417.012-2.669.4-4.239.492a21.439,21.439,0,0,1-4.379-.281l-.117-.89q-.02-.321-.024-.679,0-.445.035-.948.041-.562.117-1.194.066-.5.152-1.042.187-1.334.375-2.248a13.357,13.357,0,0,0,2.271.82,9.722,9.722,0,0,0,4.121.141l2.154-.679a.613.613,0,0,1,.164-.094,5.3,5.3,0,0,0,.492.562.136.136,0,0,0,.094.047q.541.192,1.335.515.763.3,1.756.726a8.184,8.184,0,0,0,3.348.539,4.267,4.267,0,0,1,2.459.281c.031,0,.047.008.047.023a1.593,1.593,0,0,1,.937,1.077,2.083,2.083,0,0,1,.035.211A2.214,2.214,0,0,1,3132.475,2588.7Zm153.343-97.845.082-.012v84.744a15,15,0,0,0-6.767,5.456l-26.461,4.66V2496.7Z" transform="translate(-449.531 -433.45)" fill="#ed428b" fill-rule="evenodd"/>
    <path id="Trazado_1229" data-name="Trazado 1229" d="M3694.343,2805.16v-71.116l33.228-5.854v71.116Z" transform="translate(-931.174 -645.811)" fill="#1fbcbf" fill-rule="evenodd"/>
    <path id="Trazado_1230" data-name="Trazado 1230" d="M3527.85,2750.712l-26.508-4.671v-17.715l33.2,5.854V2805.3l-6.7-1.182Z" transform="translate(-771.378 -645.923)" fill="#0d8e90" fill-rule="evenodd"/>
    <path id="Trazado_1231" data-name="Trazado 1231" d="M3110.208,2034.49q-2.365.562-3.255-.96v-.656a3.325,3.325,0,0,0,2.552.211q.492-.187.96-.422l22.058-10.865a2.915,2.915,0,0,0,1.054-.937l.188-.328.094-.234v-.023a.069.069,0,0,0,.023-.047l.046-.141a2.792,2.792,0,0,0,.094-1.428,2.884,2.884,0,0,1,.562.89v.024a.067.067,0,0,1,.023.046v.024a2.782,2.782,0,0,1,.023,1.85l-.047.141a.068.068,0,0,1-.023.047v.023l-.093.234c-.063.109-.125.219-.187.328a2.915,2.915,0,0,1-1.054.937l-.07.023a.021.021,0,0,0-.023.023l-21.965,10.818A10.478,10.478,0,0,1,3110.208,2034.49Zm-169.348,200.3v1.756a.83.83,0,0,1-.468.656,7.432,7.432,0,0,1-2.084.726,29.326,29.326,0,0,1-6.205.562,31.422,31.422,0,0,1-4.613-.3l-1.592-.258a6.683,6.683,0,0,1-2.037-.726q-.515-.3-.515-.656v-1.8a.782.782,0,0,0,.421.585,6.688,6.688,0,0,0,2.131.75q.539.117,1.147.234a33.554,33.554,0,0,0,4.988.328h.071a35.7,35.7,0,0,0,5.1-.328q.562-.118,1.1-.234a6.866,6.866,0,0,0,2.107-.726A.853.853,0,0,0,2940.86,2234.794Zm-17.515-3.208q.017.567,1.382,1.031a11.648,11.648,0,0,0,1.171.328q.539.118,1.147.211.663.108,1.393.187,1.633.164,3.594.164h.071a33.322,33.322,0,0,0,5.1-.351q.562-.094,1.1-.211,2.459-.539,2.552-1.288v1.756q0,.328-.468.656a8.1,8.1,0,0,1-2.084.7l-.421.094a31,31,0,0,1-5.784.468,31.424,31.424,0,0,1-4.613-.3q-.643-.07-1.206-.176-.2-.04-.386-.082a7.856,7.856,0,0,1-1.932-.644c-.037-.019-.073-.038-.105-.059q-.515-.328-.515-.656v-1.827Zm-26.6-5.175v.035q-.745-.057-1.428-.152-.866-.141-1.592-.281a7.264,7.264,0,0,1-2.037-.7q-.515-.3-.515-.656v-1.8q.021.678,1.967,1.171c.184.05.379.1.585.141q.538.14,1.147.258.88.124,1.873.2v1.792Zm-5.058-4.262q-.515-.3-.515-.656v-1.8q.023.8,2.552,1.358.538.094,1.147.211.88.143,1.873.234v1.815q-.745-.058-1.428-.152-.866-.117-1.592-.281A6.691,6.691,0,0,1,2891.686,2222.149Zm5.058-3.817v1.815q-.745-.058-1.428-.153-.866-.117-1.592-.281a7.256,7.256,0,0,1-2.037-.7q-.515-.281-.515-.632v-1.8q.023.749,2.552,1.311a8.392,8.392,0,0,0,1.147.211Q2895.75,2218.242,2896.744,2218.333Zm7.072-6.346v1.827a36.82,36.82,0,0,1-3.887.188,34,34,0,0,1-4.613-.281q-.866-.117-1.592-.281a7.256,7.256,0,0,1-2.037-.7q-.515-.328-.515-.656v-1.826q.023.8,2.552,1.358.538.117,1.147.211a31.321,31.321,0,0,0,4.988.351h.07A37.252,37.252,0,0,0,2903.816,2211.986Zm-3.442,5.175h-.445a31.461,31.461,0,0,1-4.613-.3l-1.592-.258a6.691,6.691,0,0,1-2.037-.726q-.515-.3-.515-.656v-1.8q.023.773,2.552,1.334.538.117,1.147.234a31.323,31.323,0,0,0,4.988.351h.07a37.323,37.323,0,0,0,3.887-.187v1.4Zm-8.687-7.587q-.515-.281-.515-.632v-1.8q.023.772,2.552,1.334.538.118,1.147.211a33.487,33.487,0,0,0,4.988.328h.07q2.107,0,3.887-.164v1.8a40.91,40.91,0,0,1-8.5-.071q-.866-.14-1.592-.281A5.952,5.952,0,0,1,2891.686,2209.574Zm0-3.115q-.515-.327-.515-.655v-1.826q.023.772,2.552,1.334a11.432,11.432,0,0,0,1.147.234,31.349,31.349,0,0,0,4.988.351h.07a37.323,37.323,0,0,0,3.887-.187v1.826a36.82,36.82,0,0,1-3.887.188,31.391,31.391,0,0,1-4.613-.3,14.161,14.161,0,0,1-1.592-.257A7.254,7.254,0,0,1,2891.686,2206.46Zm33.041-1.9v1.756q0,.351-.492.656a7.457,7.457,0,0,1-2.084.726,29.327,29.327,0,0,1-6.205.562,31.45,31.45,0,0,1-4.613-.3q-.867-.117-1.592-.258a10.677,10.677,0,0,1-1.054-.292l-.07-.023a4,4,0,0,1-.913-.41,2.207,2.207,0,0,1-.258-.176.653.653,0,0,1-.258-.48v-1.8a.627.627,0,0,0,.246.445,3.417,3.417,0,0,0,1.253.609q.457.149,1.054.281.538.117,1.147.234a31.357,31.357,0,0,0,4.988.351h.07a33.358,33.358,0,0,0,5.1-.351q.562-.118,1.1-.234Q2924.61,2205.312,2924.727,2204.563Zm-17.539-3.208q.023.8,2.552,1.358a8.311,8.311,0,0,0,1.147.211,31.326,31.326,0,0,0,4.988.352h.07a33.325,33.325,0,0,0,5.1-.352,8.564,8.564,0,0,0,1.1-.211q2.459-.538,2.576-1.265v1.733q0,.328-.492.656a8.127,8.127,0,0,1-2.084.7,29.309,29.309,0,0,1-6.205.562,34.033,34.033,0,0,1-4.613-.281q-.867-.117-1.592-.281-.6-.137-1.054-.281l-.07-.023a4.45,4.45,0,0,1-.913-.4q-.515-.328-.515-.656v-1.826Zm17.527-1.195a.914.914,0,0,1-.48.515,6.562,6.562,0,0,1-2.084.726,29.343,29.343,0,0,1-6.205.562,33.991,33.991,0,0,1-4.613-.281q-.867-.14-1.592-.281a5.949,5.949,0,0,1-2.037-.726q-.515-.281-.515-.633v-1.8q.023.772,2.552,1.335.538.117,1.147.211a33.46,33.46,0,0,0,4.988.328h.07a35.6,35.6,0,0,0,5.1-.328q.562-.093,1.1-.211a5.968,5.968,0,0,0,2.306-.878Q2924.591,2199.445,2924.715,2200.161Zm-.937-4.226q.272.94.433,1.51l.023.117a8.127,8.127,0,0,1-2.084.7,29.341,29.341,0,0,1-6.205.562,31.448,31.448,0,0,1-4.613-.3,14.2,14.2,0,0,1-1.592-.258,7.274,7.274,0,0,1-2.037-.7q-.515-.328-.515-.656v-1.826q.023.772,2.552,1.335a11.288,11.288,0,0,0,1.147.234,31.328,31.328,0,0,0,4.988.351h.07a33.327,33.327,0,0,0,5.1-.351q.562-.093,1.1-.234A9.7,9.7,0,0,0,2923.778,2195.935Zm65.648-26.941v55.755l-20.068-3.536v-16.438l-.515.07.515-.094-10.959-1.92a.79.79,0,0,0,.164-.375v-2.833a.809.809,0,0,0-.679-.8l-1.662-.293v-35.417l.07.011,33.134,5.843Zm-32.432,33.58-.773-.141v-2.26l.726.129v2.154h.023A.386.386,0,0,0,2956.995,2202.573Zm-32.268,8.313v1.71a.591.591,0,0,1-.082.293l-9.378,1.65a33.068,33.068,0,0,1-3.934-.281q-.867-.117-1.592-.281a10.54,10.54,0,0,1-1.054-.293l-.07-.023a3.98,3.98,0,0,1-.913-.41,2.207,2.207,0,0,1-.258-.176.652.652,0,0,1-.258-.48v-1.8a.672.672,0,0,0,.246.468,3.54,3.54,0,0,0,1.253.609q.457.148,1.054.281.538.094,1.147.211a31.3,31.3,0,0,0,4.988.351h.07a33.3,33.3,0,0,0,5.1-.351q.562-.117,1.1-.211Q2924.61,2211.612,2924.727,2210.886Zm-.492-.772a7.071,7.071,0,0,1-2.084.7,28.191,28.191,0,0,1-6.205.585,31.452,31.452,0,0,1-4.613-.3q-.867-.117-1.592-.281-.6-.127-1.054-.269a.465.465,0,0,1-.059-.023,3.909,3.909,0,0,1-.925-.41,1.426,1.426,0,0,1-.258-.176.592.592,0,0,1-.258-.457v-1.8a.61.61,0,0,0,.246.433,3.482,3.482,0,0,0,1.253.6q.457.149,1.054.281a8.311,8.311,0,0,0,1.147.211,31.359,31.359,0,0,0,4.988.351h.07a33.36,33.36,0,0,0,5.1-.351,8.564,8.564,0,0,0,1.1-.211q2.459-.539,2.576-1.264v1.756Q2924.727,2209.832,2924.235,2210.113Zm-13.9,5.292-3.1.55a.467.467,0,0,1-.047-.2v-1.8a.63.63,0,0,0,.246.445,3.4,3.4,0,0,0,1.253.6q.457.142,1.054.269Q2910.027,2215.34,2910.337,2215.406Zm-19.1,22.433v-.656a.751.751,0,0,0,.386.562,6.529,6.529,0,0,0,2.166.773,11.569,11.569,0,0,0,1.147.234,31.352,31.352,0,0,0,4.988.351h.07a33.359,33.359,0,0,0,5.1-.351q.562-.094,1.1-.234a7.876,7.876,0,0,0,1.979-.644q.543-.288.6-.621v1.757q0,.327-.491.655a8.09,8.09,0,0,1-2.084.7,29.327,29.327,0,0,1-6.205.562,31.451,31.451,0,0,1-4.613-.3,14.154,14.154,0,0,1-1.593-.258,7.239,7.239,0,0,1-2.037-.7q-.515-.327-.515-.655Zm32.1-12.528q.023.773,2.552,1.335a11.5,11.5,0,0,0,1.147.234q1.135.173,2.458.257,1.189.07,2.529.07h.071a35.7,35.7,0,0,0,5.1-.328q.562-.094,1.1-.234,2.459-.539,2.552-1.265v1.756q0,.328-.468.656a8.116,8.116,0,0,1-2.084.7,29.342,29.342,0,0,1-6.205.562,32.544,32.544,0,0,1-4.3-.258l-.316-.047a14.271,14.271,0,0,1-1.592-.258,10.234,10.234,0,0,1-1.534-.457,3.31,3.31,0,0,1-.5-.246q-.515-.328-.515-.656Zm17.515,3.208v1.756q0,.352-.468.632a6.142,6.142,0,0,1-1.581.6q-.238.068-.5.129-.965.2-2.084.328a36.649,36.649,0,0,1-4.121.211q-2.1,0-3.852-.176-.389-.034-.761-.082-.866-.141-1.592-.281a6.691,6.691,0,0,1-2.037-.726q-.515-.281-.515-.632v-1.826q.015.521,1.1.937a9.987,9.987,0,0,0,1.452.422q.539.117,1.147.21a33.521,33.521,0,0,0,4.988.328h.071a35.664,35.664,0,0,0,5.1-.328q.562-.094,1.1-.21Q2940.767,2229.244,2940.86,2228.519Z" transform="translate(-266.183 -58.35)" fill="#fd9c3c" fill-rule="evenodd"/>
    <path id="Trazado_1232" data-name="Trazado 1232" d="M3092.436,2894.9a5.322,5.322,0,0,1-4.52-1.382,10,10,0,0,1-3.091-5.187c-.009-.026-.016-.054-.024-.082v-.047a9.993,9.993,0,0,1,.258-6.112,5.1,5.1,0,0,1,3.348-3.3l5.128-1.288q.212-.637.48-1.265a17.737,17.737,0,0,1,1.135-2.177q.305-.509.632-.983a15,15,0,0,1,6.767-5.456,17.558,17.558,0,0,1,2.365-.772,16.066,16.066,0,0,1,5.269-.457,15.383,15.383,0,0,1,6.721,2.26q.436.26.843.539a15.833,15.833,0,0,1,2.857,2.447,16,16,0,0,1,1.756,18.757c-.009.013-.017.024-.024.035a15.891,15.891,0,0,1-21.754,5.409,15.565,15.565,0,0,1-2.974-2.225Zm-188.62-22.058a37.323,37.323,0,0,1-3.887.187h-.07a31.38,31.38,0,0,1-4.988-.351,11.5,11.5,0,0,1-1.147-.234q-2.529-.562-2.552-1.334,0-.82,2.552-1.382a29.567,29.567,0,0,1,6.206-.562,36.751,36.751,0,0,1,3.887.188,23.206,23.206,0,0,1,2.318.374q.6.13,1.054.27v.316q0,.328.515.656-.515.3-.515.656v.551q-.457.138-1.054.269-.539.14-1.1.234Q2904.425,2872.75,2903.816,2872.844Zm19.377-11.743.585,1.967a9.7,9.7,0,0,1-1.627.48q-.539.141-1.1.234a33.327,33.327,0,0,1-5.1.351h-.07a31.328,31.328,0,0,1-4.988-.351,11.288,11.288,0,0,1-1.147-.234q-2.529-.562-2.552-1.334,0-.82,2.552-1.382a34.524,34.524,0,0,1,12.411,0Q2922.74,2860.959,2923.193,2861.1Zm72.954-35.5,26.508,4.672-33.228,5.854v-.023l-33.134-5.843,33.158-5.842Zm118.7,60.169a2.64,2.64,0,0,0-1.311-2.6,11.974,11.974,0,0,0-2.81-1.452l-.023.023a1.017,1.017,0,0,1-.656-1.147,1.109,1.109,0,0,1,.211-.585l.023-.023q.539-.679,1.077-1.288a2.455,2.455,0,0,0,.468-2.974,1.758,1.758,0,0,0-1.054-1.288q-.023,0-.047-.047a3.83,3.83,0,0,0-1.826-.3h-.07a5.723,5.723,0,0,0-1.148.211.179.179,0,0,1-.07.024q-2.693,1.007-5.2,2.061-2.669,1.077-5.48,2.295-3.137,1.311-6.416,2.552l.023.047q-1.452.516-3,1.054a.985.985,0,0,0-.609.562,1.057,1.057,0,0,0-.047.82,1,1,0,0,0,.515.585.949.949,0,0,0,.82.047q1.592-.538,3.091-1.1h-.046q3.325-1.265,6.463-2.6,2.81-1.17,5.526-2.294,2.458-1.007,5.1-1.991a1.667,1.667,0,0,1,.632-.14h.023a2.031,2.031,0,0,1,.75.094c.031.094.07.2.117.3a.56.56,0,0,1-.117.656v.047a16.385,16.385,0,0,0-1.147,1.382l.023-.047a3.361,3.361,0,0,0-.726,1.78l-.023-.023a2.892,2.892,0,0,0,2.083,3.325,10.193,10.193,0,0,1,2.365,1.194h.023a.748.748,0,0,1,.351.726v.094a.786.786,0,0,1-.211.445l-.047.024a5.651,5.651,0,0,1-2.412.96l-4.355.328q-1.878.138-3.676.316-.935.094-1.85.2-1.874.164-3.677.328h-.046a54.881,54.881,0,0,1-6.6.164,1.064,1.064,0,0,0-.749.281,1.209,1.209,0,0,0-.351.749,1.2,1.2,0,0,0,.328.773,1.067,1.067,0,0,0,.726.3,52.728,52.728,0,0,0,6.838-.164q1.827-.14,3.723-.328,2.646-.3,5.456-.492,2.248-.141,4.426-.351h.023a7.43,7.43,0,0,0,2.377-.7,7.875,7.875,0,0,0,1.088-.656l.047-.023a2.526,2.526,0,0,0,1.1-2.2Zm-204.566-23.487q0,.515,1.592.89a23.485,23.485,0,0,0,7.821,0q1.592-.375,1.592-.89,0-.469-1.592-.82a21.941,21.941,0,0,0-7.821,0Q2910.279,2861.815,2910.279,2862.283Zm-6.463,9.765q1.452-.375,1.452-.866,0-.445-1.452-.8a.655.655,0,0,1-.14-.023,21.94,21.94,0,0,0-7.821,0q-1.593.352-1.593.82,0,.515,1.593.89a23.5,23.5,0,0,0,7.821,0A.639.639,0,0,1,2903.816,2872.048Zm-12.574,32.268q0-.819,2.552-1.382a34.553,34.553,0,0,1,12.411,0q2.483.538,2.576,1.335v.117q-.053.333-.6.621a7.887,7.887,0,0,1-1.979.644q-.538.14-1.1.234a33.359,33.359,0,0,1-5.1.351h-.07a31.352,31.352,0,0,1-4.988-.351,11.569,11.569,0,0,1-1.147-.234,6.529,6.529,0,0,1-2.166-.773A.75.75,0,0,1,2891.241,2904.316Zm3.091.07v.023q.029.5,1.592.866a23.484,23.484,0,0,0,7.821,0q1.485-.35,1.581-.82a.216.216,0,0,0,.012-.07q0-.468-1.593-.82a21.955,21.955,0,0,0-7.821,0Q2894.332,2903.918,2894.332,2904.386Zm46.528-11.872q-.093.726-2.552,1.265-.538.14-1.1.234a35.7,35.7,0,0,1-5.1.328h-.071q-1.34,0-2.529-.07-1.323-.085-2.458-.257a11.5,11.5,0,0,1-1.147-.234q-2.529-.562-2.552-1.335v-.058q.1-.783,2.552-1.323a29.534,29.534,0,0,1,6.206-.562q.89,0,1.709.035a25.866,25.866,0,0,1,4.5.527q2.307.5,2.529,1.206a.4.4,0,0,1,.023.106v.14Zm-5.011.89a4.082,4.082,0,0,0,1.323-.492.507.507,0,0,0,.27-.4q0-.491-1.593-.843a23.466,23.466,0,0,0-7.821,0q-1.592.351-1.592.843,0,.515,1.592.89a20.016,20.016,0,0,0,3.911.328q.329,0,.644-.012A18.344,18.344,0,0,0,2935.849,2893.4Z" transform="translate(-266.183 -725.484)" fill="#ffdb59" fill-rule="evenodd"/>
    <path id="Trazado_1233" data-name="Trazado 1233" d="M3606.876,1960.31a2.8,2.8,0,0,1-.094,1.428l-.047.141a.068.068,0,0,1-.023.047v.023l-.094.234-.187.328a2.912,2.912,0,0,1-1.054.937l-22.058,10.865q-.468.234-.96.422a3.325,3.325,0,0,1-2.552-.211v-23.417a2.79,2.79,0,0,1,.656-1.826l.047-.047a2.782,2.782,0,0,1,1.616-.984,2.9,2.9,0,0,1,1.943.257l21.965,11.147a3.591,3.591,0,0,1,.679.491A.821.821,0,0,1,3606.876,1960.31Zm-144.6,150.334,33.228-5.854v55.778l-33.228,5.854v-55.778Z" transform="translate(-739.035)" fill="#ffbd59" fill-rule="evenodd"/>
    <path id="Trazado_1234" data-name="Trazado 1234" d="M3187.655,3078.369l-2.763-.468,2.107-.4,2.787.492Zm6.51.023.023-.023-3.3-.562-2.81-.492,1.662-.281,5.831,1.031a.764.764,0,0,0,.211.351.846.846,0,0,0,.585.234.764.764,0,0,0,.562-.234.784.784,0,0,0,.094-.117l2.388.421.773.141a.7.7,0,0,0,.187.328.807.807,0,0,0,.585.258.734.734,0,0,0,.562-.258l.07-.07,10.958,1.92-.515.094-1.662.292.538-.1-3.021-.515.094-.023-3.278-.562h-.093Zm12.645,2.6,3.009.539-2.119.375-16.766-2.95,2.131-.375,10.467,1.826-2.107.375,3.3.585Z" transform="translate(-509.371 -934.638)" fill="#986145" fill-rule="evenodd"/>
    <path id="Trazado_1235" data-name="Trazado 1235" d="M3207.7,3068.657v17.984l-1.311-.234v-9.39l-21.5-3.8v-8.559l2.763.469h-.023l3.278.585h.023Zm-19.623-4.59,2.81.492-1.1.188-2.787-.492Zm8.945.984a.784.784,0,0,1-.094.117.765.765,0,0,1-.562.234.846.846,0,0,1-.585-.234.764.764,0,0,1-.211-.351,1.1,1.1,0,0,1-.023-.211v-2.763a.721.721,0,0,1,.14-.445.577.577,0,0,1,.351-.281.633.633,0,0,1,.445-.07l2.927.527,1.663.293a.809.809,0,0,1,.679.8v2.833a.787.787,0,0,1-.164.375l-.07.07a.734.734,0,0,1-.562.258.807.807,0,0,1-.585-.258.7.7,0,0,1-.187-.328.386.386,0,0,1-.023-.117h-.024v-2.154l-.726-.129-2.248-.386v1.78A.721.721,0,0,1,3197.022,3065.051Zm6.51,2.107-10.467-1.826,1.1-.187,10.444,1.826Zm6.288,1.124-3.009-.539,1.077-.187,3.021.515-.538.105-.539.105Zm.035,17.984v-17.984l1.054-.188v17.984Z" transform="translate(-509.371 -921.39)" fill="#713d22" fill-rule="evenodd"/>
    <path id="Trazado_1236" data-name="Trazado 1236" d="M3221.072,3084.525l-1.077.187-2.084.375-3.3-.585,2.107-.375,1.078-.187h.093l3.278.562Zm-13.722-2.412-1.1.187-2.131.375h-.023l-3.278-.586h.023l2.131-.374,1.1-.187,3.3.562Z" transform="translate(-522.556 -938.359)" fill="#ffea9e" fill-rule="evenodd"/>
    <path id="Trazado_1237" data-name="Trazado 1237" d="M3155.457,2383.507q-.059.1-.117.222-.539,1.077-.726,1.405l-2.4.948-3.758,1.37a.4.4,0,0,1-.351-.164.8.8,0,0,1-.234-.328l.14-.047a.47.47,0,0,0,.141.164.558.558,0,0,0,.421.094.587.587,0,0,0,.3-.281,1.325,1.325,0,0,0,.07-.421Zm2.927.316-1.3.468a.066.066,0,0,0,.012-.023,1.813,1.813,0,0,0,0-1.358.967.967,0,0,0-.082-.117L3184,2370.5a1.648,1.648,0,0,0,.117.234v.023a3.363,3.363,0,0,1-.047,2.693,3.315,3.315,0,0,1-1.194,1.335,1.029,1.029,0,0,1-.187.094q-.515.234-1.077.469Zm23.51,128.7v1.522l-1.639.3v-17.984l-1.054.188v17.984l-2.154.375v-17.984l2.119-.375h.012l.539-.105,1.662-.293.515-.07Z" transform="translate(-478.719 -349.658)" fill="#452312" fill-rule="evenodd"/>
    <path id="Trazado_1238" data-name="Trazado 1238" d="M2968.041,3108.311v1.253a.653.653,0,0,0,.258.48,13.169,13.169,0,0,1-1.312.363,23.2,23.2,0,0,1-2.318.375v-1.827q.609-.093,1.218-.164.563-.094,1.1-.211Q2967.584,3108.45,2968.041,3108.311Zm.258-1.405a9.815,9.815,0,0,1-1.312.363,19.713,19.713,0,0,1-2.318.351v-1.8q.609-.07,1.218-.164.563-.093,1.1-.211.6-.136,1.054-.281v1.288A.592.592,0,0,0,2968.3,3106.906Zm0-3.138a13.169,13.169,0,0,1-1.312.363,23.2,23.2,0,0,1-2.318.375v-1.826q.609-.094,1.218-.164.563-.094,1.1-.234.6-.13,1.054-.269v1.276A.653.653,0,0,0,2968.3,3103.768Zm-.211,9.156-3.419.6v-1.4q.609-.094,1.218-.164.563-.117,1.1-.234.594-.13,1.054-.269v1.276A.463.463,0,0,0,2968.088,3112.924Z" transform="translate(-327.036 -955.319)" fill="#e58525" fill-rule="evenodd"/>
    <path id="Trazado_1239" data-name="Trazado 1239" d="M2923.345,3092.549q0-.351.515-.679a6.7,6.7,0,0,0,2.037.726q.726.141,1.592.281.372.047.761.082,1.747.176,3.852.176a36.649,36.649,0,0,0,4.121-.211q1.12-.125,2.084-.328.265-.061.5-.129a6.143,6.143,0,0,0,1.581-.6,1.426,1.426,0,0,1,.3.269.629.629,0,0,1,.164.363v.117q-.093.749-2.552,1.288-.538.117-1.1.211a33.288,33.288,0,0,1-5.1.351h-.071q-1.961,0-3.594-.164-.729-.079-1.393-.187-.609-.093-1.147-.211a11.713,11.713,0,0,1-1.171-.328Q2923.362,3093.115,2923.345,3092.549Zm17.515,3.208a.853.853,0,0,1-.445.562,6.866,6.866,0,0,1-2.107.726q-.538.117-1.1.234a35.661,35.661,0,0,1-5.1.328h-.071a33.519,33.519,0,0,1-4.988-.328q-.609-.117-1.147-.234a6.694,6.694,0,0,1-2.131-.75.783.783,0,0,1-.421-.585v-.023a.7.7,0,0,1,.363-.551,1.213,1.213,0,0,1,.152-.105q.049.03.105.058a7.844,7.844,0,0,0,1.932.644q.187.042.386.082.563.106,1.206.176a31.388,31.388,0,0,0,4.613.3,31.02,31.02,0,0,0,5.784-.468l.421-.094a8.108,8.108,0,0,0,2.084-.7.787.787,0,0,1,.468.585v.141Zm-44.116-14.647v1.346q-.993-.091-1.873-.234-.609-.117-1.147-.211-2.529-.561-2.552-1.358v-.023q0-.351.515-.656a7.264,7.264,0,0,0,2.037.7q.726.164,1.592.281Q2896,3081.052,2896.744,3081.11Zm-5.058,2a6.691,6.691,0,0,0,2.037.726q.726.164,1.592.281.684.094,1.428.152v1.312q-.993-.075-1.873-.2-.609-.117-1.147-.258c-.206-.044-.4-.091-.585-.141q-1.946-.493-1.967-1.171v-.023Q2891.171,3083.44,2891.686,3083.112Zm8.688-4.988-3.723.655.094.024v.492q-.993-.091-1.873-.234a8.355,8.355,0,0,1-1.147-.211q-2.529-.562-2.552-1.311v-.047q0-.352.515-.656a6.691,6.691,0,0,0,2.037.726l1.592.258a31.458,31.458,0,0,0,4.613.3Zm-8.687-4.426a7.256,7.256,0,0,0,2.037.7q.726.164,1.592.281a34.042,34.042,0,0,0,4.613.281,36.82,36.82,0,0,0,3.887-.187,23.2,23.2,0,0,0,2.318-.375,13.169,13.169,0,0,0,1.312-.363,2.178,2.178,0,0,0,.258.176,3.959,3.959,0,0,0,.913.41l.07.024a10.606,10.606,0,0,0,1.054.293q.726.164,1.592.281a33.013,33.013,0,0,0,3.934.281l-4.929.867q-.31-.066-.6-.141-.6-.127-1.054-.269a3.4,3.4,0,0,1-1.253-.6.63.63,0,0,1-.246-.445v.527q-.46.14-1.054.269-.539.117-1.1.234-.609.07-1.218.164a37.32,37.32,0,0,1-3.887.188h-.07a31.321,31.321,0,0,1-4.988-.351q-.609-.117-1.147-.234-2.529-.562-2.552-1.334v-.023Q2891.171,3074,2891.686,3073.7Zm-.515-2.482q0-.351.515-.679a5.953,5.953,0,0,0,2.037.726q.726.14,1.592.281a40.955,40.955,0,0,0,8.5.071,19.662,19.662,0,0,0,2.318-.351,9.817,9.817,0,0,0,1.312-.363,1.426,1.426,0,0,0,.258.176,3.919,3.919,0,0,0,.925.41.465.465,0,0,0,.059.023q.454.141,1.054.269.726.164,1.592.281a31.455,31.455,0,0,0,4.613.3,28.207,28.207,0,0,0,6.205-.585,7.078,7.078,0,0,0,2.084-.7,1,1,0,0,1,.492.632v.141q-.118.727-2.576,1.265-.539.094-1.1.211a33.3,33.3,0,0,1-5.1.351h-.07a31.3,31.3,0,0,1-4.988-.351q-.609-.117-1.147-.211-.6-.133-1.054-.281a3.54,3.54,0,0,1-1.253-.609.672.672,0,0,1-.246-.468v.55q-.457.139-1.054.27-.539.117-1.1.21-.609.07-1.218.164a37.32,37.32,0,0,1-3.887.188h-.07a31.29,31.29,0,0,1-4.988-.352q-.609-.094-1.147-.21Q2891.194,3072.013,2891.171,3071.217Zm0-3.115v-.047q0-.351.515-.632a7.248,7.248,0,0,0,2.037.7,14.1,14.1,0,0,0,1.592.258,31.391,31.391,0,0,0,4.613.3,36.82,36.82,0,0,0,3.887-.187,23.061,23.061,0,0,0,2.318-.375,13.175,13.175,0,0,0,1.312-.363,2.207,2.207,0,0,0,.258.176,4,4,0,0,0,.913.409l.07.023a10.606,10.606,0,0,0,1.054.293q.726.141,1.592.258a31.45,31.45,0,0,0,4.613.3,29.343,29.343,0,0,0,6.205-.562,7.457,7.457,0,0,0,2.084-.726.93.93,0,0,1,.492.609v.14q-.118.726-2.576,1.264a8.522,8.522,0,0,1-1.1.211,33.329,33.329,0,0,1-5.1.351h-.07a31.33,31.33,0,0,1-4.988-.351,8.275,8.275,0,0,1-1.147-.211q-.6-.132-1.054-.281a3.477,3.477,0,0,1-1.253-.6.609.609,0,0,1-.246-.433v.515q-.457.144-1.054.281-.539.117-1.1.211-.609.094-1.218.164-1.78.164-3.887.164h-.07a33.487,33.487,0,0,1-4.988-.328q-.609-.094-1.147-.211Q2891.194,3068.875,2891.171,3068.1Zm16.017-5.784q0-.352.515-.679a5.954,5.954,0,0,0,2.037.726q.726.14,1.592.281a33.994,33.994,0,0,0,4.613.281,29.345,29.345,0,0,0,6.205-.562,6.568,6.568,0,0,0,2.084-.726,1,1,0,0,1,.492.632v.14q-.118.727-2.576,1.265a8.564,8.564,0,0,1-1.1.211,33.327,33.327,0,0,1-5.1.351h-.07a31.328,31.328,0,0,1-4.988-.351,8.311,8.311,0,0,1-1.147-.211Q2907.211,3063.115,2907.188,3062.318Zm17.539,3.208q-.118.749-2.576,1.288-.539.117-1.1.234a33.36,33.36,0,0,1-5.1.351h-.07a31.359,31.359,0,0,1-4.988-.351q-.609-.118-1.147-.234-.6-.133-1.054-.281a3.417,3.417,0,0,1-1.253-.609.627.627,0,0,1-.246-.445v-.023q0-.352.515-.656a4.438,4.438,0,0,0,.913.4l.07.023q.454.144,1.054.281.726.164,1.592.281a33.991,33.991,0,0,0,4.613.281,29.325,29.325,0,0,0,6.205-.562,8.127,8.127,0,0,0,2.084-.7.935.935,0,0,1,.492.585v.141Zm-.492-7q.114.578.222,1.135a5.965,5.965,0,0,1-2.306.878q-.539.118-1.1.211a35.634,35.634,0,0,1-5.1.328h-.07a33.495,33.495,0,0,1-4.988-.328q-.609-.093-1.147-.211-2.529-.562-2.552-1.334v-.047q0-.351.515-.632a7.274,7.274,0,0,0,2.037.7,14.143,14.143,0,0,0,1.592.257,31.414,31.414,0,0,0,4.613.3,29.359,29.359,0,0,0,6.205-.562A8.127,8.127,0,0,0,2924.235,3058.525Zm16.157,30.23a.786.786,0,0,1,.468.585v.14q-.093.726-2.552,1.288-.538.116-1.1.21a35.664,35.664,0,0,1-5.1.328h-.071a33.521,33.521,0,0,1-4.988-.328q-.609-.094-1.147-.21a9.987,9.987,0,0,1-1.452-.422q-1.085-.415-1.1-.937v-.023a.5.5,0,0,1,.047-.211,1.067,1.067,0,0,1,.469-.422,3.31,3.31,0,0,0,.5.246,10.263,10.263,0,0,0,1.534.457,14.328,14.328,0,0,0,1.592.258l.316.047a32.544,32.544,0,0,0,4.3.258,29.342,29.342,0,0,0,6.205-.562A8.126,8.126,0,0,0,2940.392,3088.755Z" transform="translate(-266.183 -919.313)" fill="#ce7c56" fill-rule="evenodd"/>
    <path id="Trazado_1240" data-name="Trazado 1240" d="M2925.153,3038.871q0-.469,1.592-.82a21.956,21.956,0,0,1,7.821,0q1.592.352,1.592.82,0,.515-1.592.89a23.5,23.5,0,0,1-7.821,0Q2925.153,3039.386,2925.153,3038.871Zm-6.463,9.765a.641.641,0,0,0-.141.023,23.5,23.5,0,0,1-7.821,0q-1.593-.375-1.593-.89,0-.469,1.593-.82a21.923,21.923,0,0,1,7.821,0,.656.656,0,0,0,.141.023q1.452.351,1.452.8Q2920.142,3048.26,2918.69,3048.636Zm-9.483,32.338q0-.468,1.592-.82a21.956,21.956,0,0,1,7.821,0q1.593.352,1.592.82a.218.218,0,0,1-.012.07q-.095.47-1.581.82a23.485,23.485,0,0,1-7.821,0q-1.563-.367-1.592-.866Zm41.517-10.982a18.344,18.344,0,0,1-3.267.316q-.315.012-.644.012a20.017,20.017,0,0,1-3.91-.328q-1.593-.375-1.592-.89,0-.491,1.592-.843a23.466,23.466,0,0,1,7.821,0q1.592.351,1.592.843a.506.506,0,0,1-.269.4A4.075,4.075,0,0,1,2950.724,3069.991Z" transform="translate(-281.057 -902.071)" fill="#fff7da" fill-rule="evenodd"/>
    <path id="Trazado_1241" data-name="Trazado 1241" d="M2952.478,3133.546q-.02.649-.058,1.183l-1.323.234h-.012l-17.516,3.091h-.012l-2.95.515,15.221,2.693,13.558-2.388.96.047a3.125,3.125,0,0,0,1.721-.515l5.562-.983,1.5-.047a15.166,15.166,0,0,0,4.859-1.066l7.786-1.37-6.241-1.1a2.017,2.017,0,0,0-.035-.211,1.593,1.593,0,0,0-.937-1.077c0-.015-.016-.023-.047-.023a4.263,4.263,0,0,0-2.458-.281,8.185,8.185,0,0,1-3.349-.539q-.993-.422-1.756-.726l.257-.047.867.152,21.5,3.805-44.187,7.8v-.024l-22.269-3.934v.023l-.094-.023,3.723-.656,3.442-.609,3.419-.6,3.1-.55,4.929-.867,9.378-1.65Zm-.14,1.8a1.422,1.422,0,0,0,.749,1.955,4.677,4.677,0,0,0,2.576.281,1.121,1.121,0,0,0-.047.492,31.567,31.567,0,0,1-4.4-.422l-.281-.047q-.335-.065-.621-.129-1.6-.39-1.6-.878,0-.617,2.389-1.054c.038-.009.077-.016.117-.023Q2951.75,3135.429,2952.337,3135.349Zm-4.894,3.2q1.1.187,1.1.469.023.281-1.077.468a16.816,16.816,0,0,1-2.716.187,16.2,16.2,0,0,1-2.669-.187q-1.124-.211-1.124-.492,0-.233.773-.4.159-.038.351-.07a16.2,16.2,0,0,1,2.669-.187q.825,0,1.522.058A11.486,11.486,0,0,1,2947.443,3138.545Zm15.186-.75a.227.227,0,0,1,.012-.023q.326-.049.7-.094Q2963,3137.74,2962.629,3137.8Z" transform="translate(-292.552 -979.266)" fill="#f5ffcd" fill-rule="evenodd"/>
    <path id="Trazado_1242" data-name="Trazado 1242" d="M2988.931,3148.7q-.014.259-.035.491c-.017.045-.033.088-.047.129q-.587.08-1.124.176l-.117.023q-2.388.437-2.389,1.054,0,.488,1.6.878.286.064.621.129c.093.014.186.03.281.047a31.567,31.567,0,0,0,4.4.422.725.725,0,0,0,.539.562,6.384,6.384,0,0,0,1.429.211q.628-.017,1.8.024l-13.558,2.388-15.221-2.693,2.95-.515h.011l17.516-3.091h.012Zm-4.976,3.817a11.537,11.537,0,0,0-1.171-.152q-.7-.059-1.522-.058a16.223,16.223,0,0,0-2.669.187q-.192.032-.351.071-.773.164-.773.4,0,.281,1.124.492a16.226,16.226,0,0,0,2.669.187,16.847,16.847,0,0,0,2.717-.187q1.1-.187,1.077-.469Q2985.056,3152.705,2983.955,3152.518Zm26.543-2.236a9.267,9.267,0,0,0,1.3-.691.394.394,0,0,0,.374-.445,3.083,3.083,0,0,0-.164-.656,2.214,2.214,0,0,0,.035-.679l6.24,1.1Zm-11.919,2.1a2.246,2.246,0,0,0,.562-.609q.367-.055.714-.117,1.061-.119,2.529-.187.667-.029,1.756-.07Z" transform="translate(-329.064 -993.238)" fill="#7dbf5c" fill-rule="evenodd"/>
    <path id="Trazado_1243" data-name="Trazado 1243" d="M2923.564,3183.469v-2.95l22.269,3.934v2.951Zm0-4.882v-2.33l22.269,3.934v2.88l-22.269-3.934Zm0,6.264,22.269,3.934v3.278l-22.269-3.91v-3.3Z" transform="translate(-293.003 -1016.79)" fill="#82906d" fill-rule="evenodd"/>
    <path id="Trazado_1244" data-name="Trazado 1244" d="M2923.564,3194.38V3193l22.269,3.934v1.381Zm0,2.95,22.269,3.934v1.381l-22.269-3.934Z" transform="translate(-293.003 -1030.651)" fill="#807a5d" fill-rule="evenodd"/>
    <path id="Trazado_1245" data-name="Trazado 1245" d="M3097.19,3170.678v1.358l-29.388,5.187q-.819-.035-1.709-.035a29.548,29.548,0,0,0-6.205.562q-2.455.541-2.552,1.323l-4.332.761v-1.358Zm-39.855,12.727-4.332.761v-1.358l4.379-.773a.5.5,0,0,0-.047.211v1.159Zm39.855-8.395v1.358l-22.339,3.946v-1.253a.426.426,0,0,0-.023-.105Z" transform="translate(-400.173 -1012.171)" fill="#b2aa81" fill-rule="evenodd"/>
    <path id="Trazado_1246" data-name="Trazado 1246" d="M3053,3164.591v-2.857l44.187-7.8v2.88l-44.187,7.8Zm4.332.679v1.826q0,.328.515.656a1.069,1.069,0,0,0-.468.421l-4.379.773v-2.974l4.332-.761ZM3053,3170.3l4.332-.761v.69q0,.352.515.632-.515.328-.515.679v1.276l-4.332.761Zm44.187-6.978v2.482l-22.339,3.934v-1.405a.787.787,0,0,0-.469-.585q.469-.328.469-.656v-.644l22.339-3.946Zm0-5.151v2.974l-22.363,3.946q-.222-.7-2.529-1.206a25.848,25.848,0,0,0-4.5-.527Z" transform="translate(-400.173 -998.309)" fill="#b9c99d" fill-rule="evenodd"/>
    <path id="Trazado_1247" data-name="Trazado 1247" d="M4056.429,3124.735l.024-.07a2.527,2.527,0,0,1-1.1,2.2l-.047.023a7.875,7.875,0,0,1-1.088.656,7.421,7.421,0,0,1-2.377.7h-.023q-2.178.21-4.426.351-2.81.187-5.456.492-1.9.188-3.723.328a52.726,52.726,0,0,1-6.838.164,1.065,1.065,0,0,1-.726-.3,1.193,1.193,0,0,1-.328-.773,1.207,1.207,0,0,1,.351-.749,1.065,1.065,0,0,1,.749-.281,54.878,54.878,0,0,0,6.6-.164h.046q1.8-.164,3.677-.328.914-.1,1.85-.2,1.8-.178,3.676-.316l4.355-.328a5.647,5.647,0,0,0,2.412-.96l.047-.024a.782.782,0,0,0,.211-.445v-.094a.748.748,0,0,0-.351-.726h-.023a10.2,10.2,0,0,0-2.365-1.194,2.892,2.892,0,0,1-2.084-3.325l.023.024a3.359,3.359,0,0,1,.726-1.78l-.023.047a16.343,16.343,0,0,1,1.147-1.381v-.047a.56.56,0,0,0,.117-.656c-.047-.109-.086-.211-.117-.3a2.029,2.029,0,0,0-.75-.094h-.023a1.665,1.665,0,0,0-.632.14q-2.646.984-5.1,1.99-2.716,1.124-5.526,2.295-3.138,1.335-6.463,2.6h.047q-1.5.562-3.091,1.1a.95.95,0,0,1-.82-.047,1,1,0,0,1-.515-.585,1.057,1.057,0,0,1,.047-.819.984.984,0,0,1,.609-.562q1.545-.539,3-1.054l-.023-.047q3.278-1.241,6.416-2.552,2.81-1.218,5.48-2.295,2.505-1.054,5.2-2.061a.18.18,0,0,0,.07-.023,5.707,5.707,0,0,1,1.147-.21h.07a3.829,3.829,0,0,1,1.826.3q.023.047.047.047a1.758,1.758,0,0,1,1.054,1.288,2.455,2.455,0,0,1-.468,2.974q-.538.609-1.077,1.288l-.023.023a1.111,1.111,0,0,0-.211.586,1.017,1.017,0,0,0,.656,1.147l.023-.023a11.974,11.974,0,0,1,2.81,1.452A2.64,2.64,0,0,1,4056.429,3124.735Z" transform="translate(-1207.767 -964.449)" fill="#fff" fill-rule="evenodd"/>
    <path id="Trazado_1248" data-name="Trazado 1248" d="M3151.3,2375.487v.222a9.821,9.821,0,0,1,3-1.476,5.379,5.379,0,0,1,1.264-.234h.468a4.546,4.546,0,0,0,1.967-.843q.89-.7.89-1.171a.8.8,0,0,0-.105-.41L3178.3,2361.4a7.643,7.643,0,0,1,1.03-.492.9.9,0,0,1,.187-.07,2.809,2.809,0,0,1,1.756,0,3.069,3.069,0,0,1,1.873,1.545l-26.988,12.294a.633.633,0,0,0-.667-.258q-.418.083-.89.971l-6.51,2.962-.047-.047a.212.212,0,0,0-.023-.094.647.647,0,0,0-.234-.3.424.424,0,0,0-.4-.07.567.567,0,0,0-.351.257.74.74,0,0,0-.023.422.18.18,0,0,0,.023.07q.047.094.117.211l-.14.047-.094-.187a1.072,1.072,0,0,1-.07-.562q0-.327.164-.375Z" transform="translate(-477.865 -341.544)" fill="#7a3a1e" fill-rule="evenodd"/>
    <path id="Trazado_1249" data-name="Trazado 1249" d="M3123.3,2426.956a2.5,2.5,0,0,0-.4.656q-.4.562-.7.983a.444.444,0,0,1-.094-.257.557.557,0,0,0-.094-.258,1.778,1.778,0,0,1-.234-.82,8.416,8.416,0,0,1,.632-1.1,1.1,1.1,0,0,1,.234-.515q.257.445.609,1.147C3123.265,2426.838,3123.281,2426.893,3123.3,2426.956Zm-1.054,10.912q-.281-.281-.515-.562a3.978,3.978,0,0,1-.469-.609,5.141,5.141,0,0,1-.8-2.248,4.147,4.147,0,0,1-.351-.258,1.237,1.237,0,0,1-.421-.89,3.511,3.511,0,0,0,.8.843,5.792,5.792,0,0,1,.913.843q.773,1.662,1.592,1.944.82.3.937.351a3.12,3.12,0,0,1-.4.375A1.372,1.372,0,0,1,3122.242,2437.868Zm11.439-13.792a1,1,0,0,1,.082.117,1.815,1.815,0,0,1,0,1.358.063.063,0,0,1-.012.023,3.139,3.139,0,0,1-1.252,1.733q.039.249.152,1.019a4,4,0,0,0-2.073-.644,3.134,3.134,0,0,0-1.85.363v-.621l.152-.058,2.4-.948q.187-.328.726-1.405c.039-.079.078-.154.117-.222q.472-.888.89-.972A.634.634,0,0,1,3133.681,2424.075Zm2.623-3.1a.8.8,0,0,1,.105.41q0,.468-.89,1.171a4.545,4.545,0,0,1-1.967.843h-.468a5.381,5.381,0,0,0-1.265.234,9.821,9.821,0,0,0-3,1.476v-.843q0-2.646,3.817-3.653a6.343,6.343,0,0,1,2.6-.187A1.406,1.406,0,0,1,3136.3,2420.973Z" transform="translate(-455.385 -390.94)" fill="#fd9f6c" fill-rule="evenodd"/>
    <path id="Trazado_1250" data-name="Trazado 1250" d="M3080.836,2460.8q-.257-.96-.538-1.8a1.516,1.516,0,0,0-.422-.609l-.011.011q-.223-.374-.457-.808a5.044,5.044,0,0,0,2.95.281,4.32,4.32,0,0,0,2.388-1.241,8.2,8.2,0,0,0,1.428-2.646,2.4,2.4,0,0,0,.071.585,1.287,1.287,0,0,0,.094.328,1.236,1.236,0,0,0,.421.89,4.147,4.147,0,0,0,.351.258,5.141,5.141,0,0,0,.8,2.248,3.986,3.986,0,0,0,.469.609q.234.281.515.562l.176,1.054h-.105q-.843.046-2.248.257-1.756.3-2.295.328A7.823,7.823,0,0,1,3080.836,2460.8Zm19.564-13.628,1.3-.468a4.733,4.733,0,0,1-1.241,2.318,7.439,7.439,0,0,1-1.019,1c-.029-.02-.056-.039-.082-.059a.663.663,0,0,0-.059-.035q-.114-.769-.152-1.019A3.14,3.14,0,0,0,3100.4,2447.174Zm23.241.3a1.839,1.839,0,0,0,.141-.375,3.154,3.154,0,0,0,.4.211,6.736,6.736,0,0,0,3.185.562,16.736,16.736,0,0,0,4.66-1.428,2.336,2.336,0,0,1-1.171,2.2,17.5,17.5,0,0,0-2.318,1.733,4.11,4.11,0,0,1-.75.351q-.6.064-1.182.082l-.035-.035a4.034,4.034,0,0,0-3.126-1.862Z" transform="translate(-422.035 -412.54)" fill="#ed8a55" fill-rule="evenodd"/>
    <path id="Trazado_1251" data-name="Trazado 1251" d="M3069.644,2425.251a8.2,8.2,0,0,1-1.428,2.646,4.318,4.318,0,0,1-2.389,1.241,5.043,5.043,0,0,1-2.95-.281,2.5,2.5,0,0,1-.89-.773,6.635,6.635,0,0,1-1.756-2.154,1.517,1.517,0,0,1-.188-.445q-.14-.351-.21-.539a4.958,4.958,0,0,1-.141-.562,6.351,6.351,0,0,1-.14-.749q-.047-.281-.094-.585a8.571,8.571,0,0,1,.351-2.95,10.173,10.173,0,0,1,2.131-3.723,7.858,7.858,0,0,1,3.7-2.225q.328-.117,3.817-.937a18.363,18.363,0,0,0,3-1.1,2.1,2.1,0,0,0,.445-.375.724.724,0,0,1,.422.515q.023.093.094.82a.693.693,0,0,0,.469.656.226.226,0,0,1,.117.047c.078-.047.172-.1.281-.164a4.534,4.534,0,0,1-.539,3.138,10.509,10.509,0,0,0-.984,1.756,1.1,1.1,0,0,0-.234.515,8.374,8.374,0,0,0-.632,1.1,1.778,1.778,0,0,0,.234.82.556.556,0,0,1,.094.258.445.445,0,0,0,.094.258.533.533,0,0,0,.094.187v.094a1.544,1.544,0,0,1,.047.188l.047.375a3.8,3.8,0,0,1-.023,1.733,1.54,1.54,0,0,1-.749,1.03q-.562.187-1.265-.679a.522.522,0,0,0-.211.164h-.047l-.421.492A.418.418,0,0,1,3069.644,2425.251Zm-.375,108.957a2.493,2.493,0,0,1,.094-.515q.094-.89.14-1.1v-.071q.023-.632.023-1.194a34.334,34.334,0,0,0-.632-5.831,42.35,42.35,0,0,0-1.8-6.861,16.1,16.1,0,0,1,0-4.262q.164-1.054.351-2.131a54.777,54.777,0,0,0,.937-6.393q-.164-2.9-.047-7.7a56.342,56.342,0,0,1-.164-6.814,36.94,36.94,0,0,1,.539-5.831,4.61,4.61,0,0,0-.7-3.84,16.775,16.775,0,0,1-2.318-2.412,5,5,0,0,1-.726-1.311q.6.119,1.218.234,1.85.211,3.7.445h.211a.288.288,0,0,1,.164.047l1.241.094q.492.023,1.007.094,4.66.267,10.151.129.116,1.26.176,2.517a48.536,48.536,0,0,1-.515,8.8,37.438,37.438,0,0,1-2.716,9.46,47.85,47.85,0,0,0-2.763,8.5,25.291,25.291,0,0,0-.632,7.142q.258,4.028.562,8.126a92.389,92.389,0,0,0,1.616,10.677l-.4.187a.623.623,0,0,0-.164.094l-2.154.679a9.717,9.717,0,0,1-4.121-.141A13.342,13.342,0,0,1,3069.269,2534.208Z" transform="translate(-405.503 -383.803)" fill="#193c96" fill-rule="evenodd"/>
    <path id="Trazado_1252" data-name="Trazado 1252" d="M3123.145,2469.024q-.118-.047-.937-.351-.82-.281-1.592-1.944a5.782,5.782,0,0,0-.913-.843,3.5,3.5,0,0,1-.8-.843,1.288,1.288,0,0,1-.094-.328,2.4,2.4,0,0,1-.071-.586.418.418,0,0,0,.141-.21l.421-.492h.047a.519.519,0,0,1,.211-.164q.7.866,1.265.679a1.539,1.539,0,0,0,.749-1.03,3.8,3.8,0,0,0,.023-1.733l-.047-.375a1.573,1.573,0,0,0-.047-.187v-.094a.533.533,0,0,1-.094-.187q.3-.422.7-.984a2.512,2.512,0,0,1,.4-.656q.257.749.539,1.756a9.6,9.6,0,0,1,.819,1.124,6.032,6.032,0,0,1-.094,1.288q-.047.328-.094.632a16,16,0,0,1,.234,2.927v.351A3.805,3.805,0,0,1,3123.145,2469.024Z" transform="translate(-454.601 -422.682)" fill="#feb37c" fill-rule="evenodd"/>
    <path id="Trazado_1253" data-name="Trazado 1253" d="M3084.679,2520.511a4.572,4.572,0,0,0-1.487-.012q-.867.118-1.686.281-.89.164-1.709.281-.89.164-1.8.281-.913.141-1.826.234a8.826,8.826,0,0,1-1.686.164,6.45,6.45,0,0,1-1.8-.258,1.928,1.928,0,0,1-1.007-.445,2.414,2.414,0,0,1-.538-.82,4.22,4.22,0,0,1-.164-.8v-.141a3.166,3.166,0,0,1,.609-1.92q.186-.256,1.3-1.487l.011-.011a1.511,1.511,0,0,1,.421.609l-.105.058q-.946.567-.9.878.093.351.678.585a1.689,1.689,0,0,0,.773.269.587.587,0,0,0,.093.012,7.815,7.815,0,0,0,3.583.3q.539-.024,2.3-.328,1.405-.211,2.248-.258h1.007a.365.365,0,0,1,.07.094,2.681,2.681,0,0,1,.89,1.007,9.434,9.434,0,0,1,.632,1.265A.569.569,0,0,0,3084.679,2520.511Z" transform="translate(-415.048 -470.013)" fill="#ecfbf9" fill-rule="evenodd"/>
    <path id="Trazado_1254" data-name="Trazado 1254" d="M3079.725,2519.4q.281.843.539,1.8a.648.648,0,0,1-.094-.012,1.688,1.688,0,0,1-.773-.269q-.585-.234-.679-.586-.045-.311.9-.878Z" transform="translate(-421.462 -472.943)" fill="#89abd0" fill-rule="evenodd"/>
    <path id="Trazado_1255" data-name="Trazado 1255" d="M3070.913,2535.735v.14c0-.047-.009-.094-.011-.14Z" transform="translate(-414.992 -486.466)" fill="#a7c4e4" fill-rule="evenodd"/>
    <path id="Trazado_1256" data-name="Trazado 1256" d="M3063.4,2833.542l-.585-1.967q-.38-1.281-.878-2.939a14.868,14.868,0,0,1-.141-2.108,19.054,19.054,0,0,1,.492-4.027q.468-1.991.726-2.974.422-1.826.609-3.044a17.3,17.3,0,0,0-.164-3.559q-.3-3.114-.375-3.583-.094-1.077-.8-5.5a35.219,35.219,0,0,1-.258-8.571,15.722,15.722,0,0,1-2.224-6.51,15.77,15.77,0,0,0,2.412.679,4.725,4.725,0,0,0,.585.14l.258.094q1.081.213,2.2.422a5.015,5.015,0,0,0,.726,1.311,16.762,16.762,0,0,0,2.318,2.412,4.609,4.609,0,0,1,.7,3.84,36.97,36.97,0,0,0-.539,5.831,56.3,56.3,0,0,0,.164,6.814q-.117,4.8.047,7.7a54.74,54.74,0,0,1-.937,6.393q-.187,1.077-.351,2.131a16.1,16.1,0,0,0,0,4.262,42.346,42.346,0,0,1,1.8,6.861,34.353,34.353,0,0,1,.632,5.831q0,.563-.023,1.194v.071q-.047.211-.14,1.1a9.121,9.121,0,0,1-1.148.094,8.519,8.519,0,0,1-1.4-.14,6.9,6.9,0,0,1-.7-.141q-.422-.093-.7-.164a4.408,4.408,0,0,0-.539-.117v-.7a67.1,67.1,0,0,0-.831-6.908q-.124-.716-.258-1.464l-.223-1.135-.023-.117Q3063.675,2834.482,3063.4,2833.542Z" transform="translate(-405.807 -695.958)" fill="#0d2a77" fill-rule="evenodd"/>
    <path id="Trazado_1257" data-name="Trazado 1257" d="M3120.16,3154.919q-.377.045-.7.094a.228.228,0,0,0-.011.023,2.242,2.242,0,0,1-.562.609,3.125,3.125,0,0,1-1.721.515l-.96-.047q-1.174-.041-1.8-.024a6.369,6.369,0,0,1-1.429-.211.725.725,0,0,1-.539-.562,1.122,1.122,0,0,1,.047-.492l.117-.913a21.441,21.441,0,0,0,4.379.281q1.568-.094,4.238-.492.751,0,1.417-.012a40.063,40.063,0,0,0,4.3-.2,13.527,13.527,0,0,0,5.386-1.733,3.076,3.076,0,0,1,.164.656.394.394,0,0,1-.375.445,9.24,9.24,0,0,1-1.3.691,15.165,15.165,0,0,1-4.859,1.066l-1.5.047q-1.089.041-1.756.07Q3121.221,3154.8,3120.16,3154.919Z" transform="translate(-449.369 -996.506)" fill="#333" fill-rule="evenodd"/>
    <path id="Trazado_1258" data-name="Trazado 1258" d="M3096.148,3158.206a4.677,4.677,0,0,1-2.576-.281,1.422,1.422,0,0,1-.749-1.955c.014-.04.03-.083.047-.129q.159.043.328.082a22.714,22.714,0,0,0,2.951.48l.117.89Z" transform="translate(-433.038 -999.887)" fill-rule="evenodd"/>
    <path id="Trazado_1259" data-name="Trazado 1259" d="M3344.9,2408.01a16.731,16.731,0,0,1-4.66,1.428,6.735,6.735,0,0,1-3.184-.562,3.141,3.141,0,0,1-.4-.211,1.825,1.825,0,0,1-.141.375,11.4,11.4,0,0,1,1.358-2.833q2.224-2.857,3.3-4.262.82-.914,1.288-1.358a1.336,1.336,0,0,1,1.545-.468,4.154,4.154,0,0,1-1.1,2.084,5.263,5.263,0,0,0-1.218,1.967,5.212,5.212,0,0,1,2.81,2.693A5.608,5.608,0,0,1,3344.9,2408.01Zm-5.246,4.648a.922.922,0,0,0-.175-.281q.586-.017,1.182-.082A8.041,8.041,0,0,1,3339.652,2412.659Z" transform="translate(-634.908 -374.103)" fill="#ffaa83" fill-rule="evenodd"/>
  </g>
</svg>
