<svg xmlns="http://www.w3.org/2000/svg" xmlns:xlink="http://www.w3.org/1999/xlink" width="133.2" height="133.2" viewBox="0 0 133.2 133.2">
  <defs>
    <filter id="Trazado_1216" x="0" y="0" width="133.2" height="133.2" filterUnits="userSpaceOnUse">
      <feOffset dy="3" input="SourceAlpha"/>
      <feGaussianBlur stdDeviation="3" result="blur"/>
      <feFlood flood-opacity="0.161"/>
      <feComposite operator="in" in2="blur"/>
      <feComposite in="SourceGraphic"/>
    </filter>
  </defs>
  <g id="Grupo_9924" data-name="Grupo 9924" transform="translate(-102.585 -101.638)">
    <g transform="matrix(1, 0, 0, 1, 102.59, 101.64)" filter="url(#Trazado_1216)">
      <path id="Trazado_1216-2" data-name="Trazado 1216" d="M168.735,222.838a57.6,57.6,0,0,1,.435-115.2h.464a57.6,57.6,0,0,1-.43,115.2Z" transform="translate(-102.59 -101.64)" fill="#7cb342"/>
    </g>
    <path id="Trazado_1217" data-name="Trazado 1217" d="M303.772,312.412l-10.087-10.087-7.4-7.4-2.828-2.828c.229.215.8-.227.973-.345a17.251,17.251,0,0,0,1.879-1.539c1.783-1.617,3.453-3.364,5.073-5.143.13-.143.372-.275.234-.448q-.121-.152-.252-.3a5.67,5.67,0,0,0-.562-.537,5.612,5.612,0,0,0-1.328-.822,3.6,3.6,0,0,1-.379-.38l-2.318-2.317-4.156-4.156c1.548,1.217,3.917,1.331,5.782,1.011,1.492-.256,3.111-1.013,3.5-2.612a16.2,16.2,0,0,0,.214-2.841c.06-.987.124-1.977.242-2.959a6.369,6.369,0,0,1,.582-2.265,11.782,11.782,0,0,1,1.459-2.073c1.6-1.9,3.5-3.517,5.251-5.268a59.5,59.5,0,0,0,4.226-4.616,20.837,20.837,0,0,0,2.713-4.169,16.267,16.267,0,0,0,1.562-7.092,18.924,18.924,0,0,0-5.735-13.219q2.13,2.129,4.259,4.258l.712.712,4.483,4.483,7.763,7.763L329.7,257.293l11.379,11.379,2,2A57.983,57.983,0,0,1,303.772,312.412ZM282.583,263c.145-.415.3-.827.482-1.227,1.539-3.4,4.342-6.1,7.037-8.591,1.3-1.2,2.591-2.411,3.822-3.681a11.006,11.006,0,0,0,2.086-2.715,8.741,8.741,0,0,0-3.409-11.269,10.6,10.6,0,0,0-6.087-1.194,9.639,9.639,0,0,0-5.651,2.307,11.923,11.923,0,0,0-3.168,4.731,21.147,21.147,0,0,0-.966,3.281,8.422,8.422,0,0,1-1.034,2.8,5.019,5.019,0,0,1-7.416,1.257l6.127,6.127Z" transform="translate(-117.876 -92.061)" fill="#6c9b3b"/>
    <path id="Trazado_1218" data-name="Trazado 1218" d="M280.227,276.164a5.561,5.561,0,1,1,5.561-5.561A5.567,5.567,0,0,1,280.227,276.164Zm4.726-19.568c.021-.236.04-.611.066-1.084l0-.1c.186-3.575.38-5.252.689-5.984.554-1.314,2.016-3.09,4.342-5.279,4.614-4.338,7.544-7.676,8.957-10.2a16.211,16.211,0,0,0,2.113-8.006,18.424,18.424,0,0,0-5.74-13.375c-3.81-3.81-9-5.743-15.439-5.743-6.12,0-11.134,1.91-14.9,5.675-4.06,4.057-6.118,8.7-6.118,13.8a6.25,6.25,0,0,0,1.736,4.442,5.429,5.429,0,0,0,3.821,1.643c.919,0,4-.332,5.092-4.6v-.01c.705-3.685,2.009-6.461,3.876-8.25a9.6,9.6,0,0,1,6.973-2.685,9.15,9.15,0,0,1,6.869,2.569,8.492,8.492,0,0,1,2.545,6.172,8.269,8.269,0,0,1-1.435,4.739,51.753,51.753,0,0,1-5.811,5.852c-3.308,3.041-5.455,5.708-6.562,8.153a22.583,22.583,0,0,0-1.648,9.251v.164c0,1.041,0,2.473.042,2.865.22,2.114,2.408,3.208,5.32,3.208C282.622,259.808,284.765,258.711,284.953,256.6Z" transform="translate(-110.839 -74.61)" fill="#fff"/>
  </g>
</svg>
